# xmcd
#
# Track frame offsets:
#	150
#	16390
#	36169
#	51595
#	67508
#	82598
#	98013
#	114575
#	132543
#	149661
#	165901
#	183063
#	199429
#	215301
#	232176
#
# Disc length: 3331 seconds
#
# Revision: 0
# Processed by: cddbd v1.5.2PL0 Copyright (c) Steve Scherf et al.
# Submitted via: EasyCDDAExtractor 16.0.6.1
#
DISCID=cb0d010f
DTITLE=Διάφοροι - Heaven 2012 Best Of
DYEAR=2012
DGENRE=Σύνχρωνα
TTITLE0=Αντίθετο ρεύμα (Γιάννης Πλούταρχος)
TTITLE1=Γι΄αυτό σ΄αγαπώ (Γιώργος Γιαννιάς)
TTITLE2=Εσύ δεν ξέρεις (Γιώργος Παπαδόπουλος)
TTITLE3=Κάνω κύκλους (Νικηφόρος feat Μελίνα Μακρή)
TTITLE4=Φταίς (Πάολα)
TTITLE5=Προχωράμε (Κέλλυ Κελεκίδου)
TTITLE6=Ζω τη στιγμή (Μηδενιστής feat Μια)
TTITLE7=Χωρίς εσένα (Νίκος Κουρκούλης)
TTITLE8=Κι εδώ αγαπούσες (Γιάννης Βαρδής)
TTITLE9=Και παραδίνομαι (Ευδικία Καδή)
TTITLE10=Κάνε γρήγορα (Γιάννης Τόλμης)
TTITLE11=Ξαφνικά (Κώστας Καραφώτης)
TTITLE12=Δως μου την βραδιά (The 48 Hours)
TTITLE13=Δεν υπάρχεις για μένα (Αμαρυλλίς)
TTITLE14=Say my name (Nicko)
EXTD=
EXTT0=
EXTT1=
EXTT2=
EXTT3=
EXTT4=
EXTT5=
EXTT6=
EXTT7=
EXTT8=
EXTT9=
EXTT10=
EXTT11=
EXTT12=
EXTT13=
EXTT14=
PLAYORDER=
